<?xml version="1.0" encoding="UTF-8"?>
<svg version="1.1" xmlns="http://www.w3.org/2000/svg" width="512" height="512">
<path d="M0 0 C1.52186509 -0.00551503 1.52186509 -0.00551503 3.07447493 -0.01114148 C6.47882378 -0.02216632 9.88314209 -0.02602019 13.2875061 -0.02983093 C15.72692969 -0.03609663 18.16635233 -0.04274353 20.60577393 -0.04974365 C27.93048388 -0.06896213 35.2551913 -0.07957198 42.5799188 -0.08847144 C46.03478264 -0.09286032 49.48964496 -0.09822568 52.9445076 -0.10346031 C64.43967813 -0.120472 75.93484773 -0.13496317 87.43002892 -0.14220905 C90.41116716 -0.14411876 93.39230539 -0.14603911 96.3734436 -0.147995 C97.4847809 -0.14872061 97.4847809 -0.14872061 98.61856945 -0.14946087 C110.60357262 -0.15774995 122.58847562 -0.18306808 134.57343511 -0.21557567 C146.89645305 -0.24872576 159.21942024 -0.26666509 171.54248297 -0.26985329 C178.45391593 -0.27201138 185.36520295 -0.28065627 192.27659225 -0.30631447 C198.78550839 -0.33042345 205.29423393 -0.33379747 211.80318832 -0.32355309 C214.18348564 -0.32305943 216.56379617 -0.32932914 218.94405365 -0.34310913 C234.84423741 -0.4299588 249.05667928 0.31795574 263.38369751 7.95967102 C264.05231812 8.30731506 264.72093872 8.65495911 265.40982056 9.01313782 C270.76001737 11.86670615 275.52297952 15.04617702 280.00869751 19.14717102 C281.34674438 20.34793274 281.34674438 20.34793274 282.71182251 21.57295227 C296.84789531 34.9172505 306.7731524 53.78584371 307.38901424 73.48569965 C307.40658824 75.79371504 307.40816732 78.10189044 307.39637756 80.40994263 C307.40445587 82.33280021 307.40445587 82.33280021 307.41269737 84.29450339 C307.42704075 87.8186007 307.42294248 91.34246193 307.41553056 94.86657155 C307.41077335 98.6806109 307.42333123 102.49460103 307.43354797 106.30862427 C307.45069208 113.76770075 307.45158506 121.22669284 307.44633507 128.6857839 C307.44228361 134.75278802 307.44374848 140.81976731 307.44908333 146.88677025 C307.44983175 147.75227696 307.45058017 148.61778366 307.45135127 149.50951784 C307.45288285 151.26815147 307.4544212 153.0267851 307.45596624 154.78541871 C307.46967563 171.25591925 307.46426479 187.72637222 307.45278103 204.19687166 C307.44285227 219.24009622 307.45578593 234.28319772 307.47971522 249.3264033 C307.50414248 264.80012821 307.51370507 280.2737959 307.50706249 295.7475397 C307.50357807 304.42389072 307.50575074 313.10014717 307.52331352 321.77648354 C307.53808103 329.1630848 307.53861192 336.54952491 307.52124261 343.93612317 C307.51276711 347.6990859 307.51049759 351.46176129 307.52589417 355.22470856 C307.59245972 372.73667515 307.63227695 388.7058445 299.19619751 404.52217102 C298.67473145 405.52510193 298.67473145 405.52510193 298.14273071 406.54829407 C295.28916238 411.89849088 292.10969151 416.66145303 288.00869751 421.14717102 C287.2081897 422.03920227 286.40768188 422.93123352 285.58291626 423.85029602 C276.18943262 433.80113542 265.04265049 440.8330088 252.00869751 445.14717102 C250.96681007 445.51842149 250.96681007 445.51842149 249.9038744 445.89717197 C238.8426804 449.27527734 227.38308393 448.57540983 215.93521118 448.55122375 C213.49475289 448.55693239 211.05429727 448.56389855 208.61384583 448.57202148 C202.69482521 448.58806 196.77590279 448.59006428 190.85687204 448.58480858 C186.04081936 448.58075186 181.22479793 448.58222818 176.40874672 448.58755684 C175.72086313 448.58830526 175.03297954 448.58905368 174.324251 448.58982478 C172.92638537 448.59135641 171.52851975 448.59289476 170.13065413 448.59443975 C157.04799727 448.60813936 143.96540035 448.6027453 130.88274489 448.59125454 C118.9434407 448.58132758 107.00429161 448.594258 95.06501134 448.61818873 C82.77339805 448.64263793 70.4818568 448.65217318 58.1902197 448.64553601 C51.30238256 448.64205632 44.41466454 448.64419246 37.52684593 448.66178703 C31.04653922 448.6781368 24.56645471 448.67323718 18.08615303 448.65448189 C15.71714711 448.65081162 13.34811906 448.65385848 10.97913361 448.66436768 C-4.87855255 448.72930688 -19.07863798 447.95539589 -33.36630249 440.33467102 C-34.0349231 439.98702698 -34.7035437 439.63938293 -35.39242554 439.28120422 C-40.74126535 436.42835966 -45.51072862 433.2523234 -49.99130249 429.14717102 C-50.8949353 428.32346008 -51.79856812 427.49974915 -52.72958374 426.65107727 C-68.31692291 411.78088225 -76.90967091 392.75717242 -77.45201969 371.27227783 C-77.52841149 365.20744394 -77.53572571 359.14464356 -77.51420116 353.07957363 C-77.50507131 349.26762536 -77.51915932 345.45574783 -77.53012085 341.64381409 C-77.54782682 334.19514657 -77.54410166 326.74664107 -77.53247029 319.29796743 C-77.52340485 313.23961155 -77.52222535 307.1813008 -77.52656555 301.12294006 C-77.52717848 300.25783983 -77.52779142 299.39273959 -77.52842292 298.50142419 C-77.52970193 296.74351516 -77.53099879 294.98560614 -77.53231329 293.22769713 C-77.54369588 276.77719437 -77.53064193 260.32678104 -77.50911182 243.87629294 C-77.49124295 229.78750443 -77.49434771 215.69884778 -77.51278687 201.61006165 C-77.53423471 185.2149495 -77.54259746 168.81991556 -77.53033781 152.42479134 C-77.52906373 150.67366156 -77.52780624 148.92253178 -77.52656555 147.17140198 C-77.52594845 146.31000685 -77.52533135 145.44861172 -77.52469555 144.56111372 C-77.52125437 138.51611081 -77.52704429 132.47115788 -77.53648376 126.42616272 C-77.54774875 119.05060512 -77.54456976 111.67521761 -77.52336079 104.29967928 C-77.51291048 100.54277732 -77.5086244 96.78615805 -77.5219574 93.02925873 C-77.57892304 75.53131416 -77.60256792 59.57651767 -69.17880249 43.77217102 C-68.83550903 43.107901 -68.49221558 42.44363098 -68.13851929 41.75923157 C-64.16488761 34.27542145 -59.19802944 27.92087051 -52.99130249 22.14717102 C-52.33001343 21.48072571 -51.66872437 20.8142804 -50.98739624 20.12763977 C-40.79632565 10.27235405 -28.69701205 4.52587658 -14.99130249 1.14717102 C-14.31452642 0.97094617 -13.63775036 0.79472132 -12.94046593 0.61315632 C-8.62662262 -0.06845649 -4.36096462 -0.00084815 0 0 Z M-33.24130249 49.45967102 C-43.94452099 61.97518748 -45.14752628 76.29622407 -45.12501526 92.07557678 C-45.12728082 93.25015733 -45.12954637 94.42473788 -45.13188058 95.63491178 C-45.13709246 98.87314365 -45.13786948 102.11134034 -45.13668621 105.34957504 C-45.13648124 108.85072471 -45.14201008 112.35186625 -45.14674377 115.85301208 C-45.15503011 122.70420414 -45.1577977 129.55538759 -45.15835615 136.40658423 C-45.15883227 141.97881852 -45.16089177 147.55104999 -45.16405678 153.12328339 C-45.17285782 168.94146605 -45.17747701 184.75964194 -45.1767263 200.57782707 C-45.17668635 201.42957776 -45.17664639 202.28132845 -45.17660522 203.15888977 C-45.17656434 204.01168728 -45.17652346 204.86448478 -45.17648134 205.74312463 C-45.17607502 219.55921539 -45.18564254 233.37527888 -45.19974359 247.19136176 C-45.21412727 261.39709728 -45.22101268 275.60281953 -45.22014982 289.80856252 C-45.21981854 297.77616736 -45.2225353 305.7437436 -45.23332787 313.71134186 C-45.24245911 320.49563118 -45.24458664 327.27987894 -45.23781844 334.06417176 C-45.23456645 337.52097877 -45.23444842 340.97770616 -45.24317169 344.43450546 C-45.25092238 348.19335083 -45.24622633 351.95198957 -45.23854065 355.71083069 C-45.24368421 356.78741778 -45.24882778 357.86400487 -45.2541272 358.97321582 C-45.17693846 376.15306972 -42.03466518 389.80512097 -29.88973999 402.31123352 C-17.7073919 413.80482695 -3.66848167 416.31083041 12.50741577 416.28088379 C13.42064897 416.28314935 14.33388216 416.2854149 15.27478909 416.28774911 C18.3120816 416.29404142 21.34932893 416.29326283 24.3866272 416.29243469 C26.57373105 416.29542916 28.76083438 416.29883236 30.94793701 416.3026123 C36.87371061 416.31142724 42.79946976 416.31378937 48.72524929 416.31442809 C52.43188819 416.31514002 56.13852344 416.31727706 59.84516144 416.31992531 C72.12174272 416.32869389 84.39831521 416.33334605 96.67489967 416.33259483 C97.66577413 416.3325349 97.66577413 416.3325349 98.67666626 416.33247375 C99.6687635 416.33241243 99.6687635 416.33241243 100.68090311 416.33234987 C110.72703028 416.33196892 120.77312635 416.33976257 130.81924438 416.35298157 C142.50889977 416.36831011 154.19853217 416.37673878 165.88819814 416.37601835 C172.06728394 416.37576399 178.24632989 416.3785809 184.42540741 416.3891964 C190.23996813 416.39891342 196.0544512 416.3989319 201.86901474 416.39167976 C203.99536376 416.39063839 206.12171771 416.39297004 208.24805832 416.39904022 C228.52330436 416.45314331 245.86109188 415.91506241 261.17276001 401.04560852 C273.4133188 388.0715331 275.16679078 373.30855178 275.14241028 356.21876526 C275.14467583 355.04418471 275.14694139 353.86960416 275.1492756 352.65943027 C275.15448747 349.42119839 275.15526449 346.1830017 275.15408123 342.944767 C275.15387626 339.44361733 275.1594051 335.94247579 275.16413879 332.44132996 C275.17242513 325.5901379 275.17519272 318.73895446 275.17575117 311.88775781 C275.17622729 306.31552352 275.17828679 300.74329205 275.1814518 295.17105865 C275.19025284 279.35287599 275.19487203 263.5347001 275.19412132 247.71651497 C275.19408137 246.86476428 275.19404141 246.01301359 275.19400024 245.13545227 C275.19395936 244.28265477 275.19391848 243.42985726 275.19387636 242.55121741 C275.19347004 228.73512665 275.20303756 214.91906316 275.21713861 201.10298029 C275.23152229 186.89724476 275.2384077 172.69152251 275.23754483 158.48577952 C275.23721356 150.51817469 275.23993032 142.55059844 275.25072289 134.58300018 C275.25985413 127.79871086 275.26198166 121.0144631 275.25521346 114.23017028 C275.25196147 110.77336327 275.25184344 107.31663588 275.26056671 103.85983658 C275.2683174 100.10099121 275.26362135 96.34235247 275.25593567 92.58351135 C275.26365101 90.96863071 275.26365101 90.96863071 275.27152222 89.32112622 C275.19433348 72.14127232 272.05206019 58.48922107 259.90713501 45.98310852 C247.57098669 34.34441028 233.7514875 31.98306169 217.38972473 32.01345825 C216.0185933 32.01005992 216.0185933 32.01005992 214.61976224 32.00659293 C211.58557578 32.00031044 208.55143464 32.00107856 205.51724243 32.00190735 C203.32999108 31.99891229 201.14274025 31.99550896 198.95549011 31.99172974 C193.03390782 31.98292146 187.11234 31.98055298 181.19075179 31.97991395 C177.48628512 31.97920172 173.7818221 31.97706413 170.07735634 31.97441673 C156.47249022 31.96469737 142.86763544 31.96115054 129.2627661 31.96199217 C119.22290365 31.96237321 109.1830723 31.95457648 99.14321899 31.94136047 C87.45831738 31.92603209 75.77343875 31.91760324 64.08852655 31.9183237 C57.91280909 31.91857803 51.73713151 31.9157622 45.56142235 31.90514565 C39.75095223 31.89542892 33.94055983 31.89540994 28.1300869 31.90266228 C26.00534959 31.90370364 23.88060734 31.90137207 21.75587845 31.89530182 C0.11938923 31.83752151 -17.57303954 32.85248594 -33.24130249 49.45967102 Z " fill="#000000" transform="translate(140.99130249023438,31.852828979492188)"/>
<path d="M0 0 C1.37045026 -0.00542487 2.74089468 -0.01254958 4.11132812 -0.02124023 C7.82214736 -0.03943355 11.53252041 -0.0324229 15.24334717 -0.01972389 C19.13229549 -0.00957537 23.02120638 -0.0189947 26.91015625 -0.02526855 C33.44017372 -0.03253959 39.97001005 -0.02297163 46.5 -0.00390625 C54.04255185 0.01786159 61.58467116 0.01080982 69.12721252 -0.01121187 C75.61063837 -0.02938147 82.09393423 -0.03191662 88.57737732 -0.0214572 C92.44635098 -0.01523078 96.31512153 -0.01436299 100.18408203 -0.02760315 C103.82206402 -0.03918392 107.45949 -0.03109613 111.09741211 -0.00802612 C113.06428265 -0.00024035 115.03120039 -0.01207597 116.99804688 -0.02453613 C127.73721866 0.0783295 127.73721866 0.0783295 132.5625 4.51757812 C136.19083663 8.33687985 136.87250458 11.40036819 137.0625 16.51757812 C136.87250458 21.63478806 136.19083663 24.6982764 132.5625 28.51757812 C126.80959292 33.81024048 120.62887603 33.08269404 113.125 33.03515625 C111.75454974 33.04058112 110.38410532 33.04770583 109.01367188 33.05639648 C105.30285264 33.0745898 101.59247959 33.06757915 97.88165283 33.05488014 C93.99270451 33.04473162 90.10379362 33.05415095 86.21484375 33.0604248 C79.68482628 33.06769584 73.15498995 33.05812788 66.625 33.0390625 C59.08244815 33.01729466 51.54032884 33.02434643 43.99778748 33.04636812 C37.51436163 33.06453772 31.03106577 33.06707287 24.54762268 33.05661345 C20.67864902 33.05038703 16.80987847 33.04951924 12.94091797 33.0627594 C9.30293598 33.07434017 5.66551 33.06625238 2.02758789 33.04318237 C0.06071735 33.0353966 -1.90620039 33.04723222 -3.87304688 33.05969238 C-14.61221866 32.95682675 -14.61221866 32.95682675 -19.4375 28.51757812 C-23.06583663 24.6982764 -23.74750458 21.63478806 -23.9375 16.51757812 C-23.74750458 11.40036819 -23.06583663 8.33687985 -19.4375 4.51757812 C-13.68459292 -0.77508423 -7.50387603 -0.04753779 0 0 Z " fill="#000000" transform="translate(231.4375,319.482421875)"/>
<path d="M0 0 C1.37045026 -0.00542487 2.74089468 -0.01254958 4.11132812 -0.02124023 C7.82214736 -0.03943355 11.53252041 -0.0324229 15.24334717 -0.01972389 C19.13229549 -0.00957537 23.02120638 -0.0189947 26.91015625 -0.02526855 C33.44017372 -0.03253959 39.97001005 -0.02297163 46.5 -0.00390625 C54.04255185 0.01786159 61.58467116 0.01080982 69.12721252 -0.01121187 C75.61063837 -0.02938147 82.09393423 -0.03191662 88.57737732 -0.0214572 C92.44635098 -0.01523078 96.31512153 -0.01436299 100.18408203 -0.02760315 C103.82206402 -0.03918392 107.45949 -0.03109613 111.09741211 -0.00802612 C113.06428265 -0.00024035 115.03120039 -0.01207597 116.99804688 -0.02453613 C127.73721866 0.0783295 127.73721866 0.0783295 132.5625 4.51757812 C136.19083663 8.33687985 136.87250458 11.40036819 137.0625 16.51757812 C136.87250458 21.63478806 136.19083663 24.6982764 132.5625 28.51757812 C126.80959292 33.81024048 120.62887603 33.08269404 113.125 33.03515625 C111.75454974 33.04058112 110.38410532 33.04770583 109.01367188 33.05639648 C105.30285264 33.0745898 101.59247959 33.06757915 97.88165283 33.05488014 C93.99270451 33.04473162 90.10379362 33.05415095 86.21484375 33.0604248 C79.68482628 33.06769584 73.15498995 33.05812788 66.625 33.0390625 C59.08244815 33.01729466 51.54032884 33.02434643 43.99778748 33.04636812 C37.51436163 33.06453772 31.03106577 33.06707287 24.54762268 33.05661345 C20.67864902 33.05038703 16.80987847 33.04951924 12.94091797 33.0627594 C9.30293598 33.07434017 5.66551 33.06625238 2.02758789 33.04318237 C0.06071735 33.0353966 -1.90620039 33.04723222 -3.87304688 33.05969238 C-14.61221866 32.95682675 -14.61221866 32.95682675 -19.4375 28.51757812 C-23.06583663 24.6982764 -23.74750458 21.63478806 -23.9375 16.51757812 C-23.74750458 11.40036819 -23.06583663 8.33687985 -19.4375 4.51757812 C-13.68459292 -0.77508423 -7.50387603 -0.04753779 0 0 Z " fill="#000000" transform="translate(231.4375,239.482421875)"/>
<path d="M0 0 C1.37045026 -0.00542487 2.74089468 -0.01254958 4.11132812 -0.02124023 C7.82214736 -0.03943355 11.53252041 -0.0324229 15.24334717 -0.01972389 C19.13229549 -0.00957537 23.02120638 -0.0189947 26.91015625 -0.02526855 C33.44017372 -0.03253959 39.97001005 -0.02297163 46.5 -0.00390625 C54.04255185 0.01786159 61.58467116 0.01080982 69.12721252 -0.01121187 C75.61063837 -0.02938147 82.09393423 -0.03191662 88.57737732 -0.0214572 C92.44635098 -0.01523078 96.31512153 -0.01436299 100.18408203 -0.02760315 C103.82206402 -0.03918392 107.45949 -0.03109613 111.09741211 -0.00802612 C113.06428265 -0.00024035 115.03120039 -0.01207597 116.99804688 -0.02453613 C127.73721866 0.0783295 127.73721866 0.0783295 132.5625 4.51757812 C136.19083663 8.33687985 136.87250458 11.40036819 137.0625 16.51757812 C136.87250458 21.63478806 136.19083663 24.6982764 132.5625 28.51757812 C126.80959292 33.81024048 120.62887603 33.08269404 113.125 33.03515625 C111.75454974 33.04058112 110.38410532 33.04770583 109.01367188 33.05639648 C105.30285264 33.0745898 101.59247959 33.06757915 97.88165283 33.05488014 C93.99270451 33.04473162 90.10379362 33.05415095 86.21484375 33.0604248 C79.68482628 33.06769584 73.15498995 33.05812788 66.625 33.0390625 C59.08244815 33.01729466 51.54032884 33.02434643 43.99778748 33.04636812 C37.51436163 33.06453772 31.03106577 33.06707287 24.54762268 33.05661345 C20.67864902 33.05038703 16.80987847 33.04951924 12.94091797 33.0627594 C9.30293598 33.07434017 5.66551 33.06625238 2.02758789 33.04318237 C0.06071735 33.0353966 -1.90620039 33.04723222 -3.87304688 33.05969238 C-14.61221866 32.95682675 -14.61221866 32.95682675 -19.4375 28.51757812 C-23.06583663 24.6982764 -23.74750458 21.63478806 -23.9375 16.51757812 C-23.74750458 11.40036819 -23.06583663 8.33687985 -19.4375 4.51757812 C-13.68459292 -0.77508423 -7.50387603 -0.04753779 0 0 Z " fill="#000000" transform="translate(231.4375,159.482421875)"/>
<path d="M0 0 C3.5 1.6875 3.5 1.6875 6 4 C6.763125 4.70125 7.52625 5.4025 8.3125 6.125 C10.76870815 10.30965092 11.18079382 14.18636466 11 19 C9.35395187 24.90640798 6.80402955 27.52474458 2 31 C-2.2150656 33.1075328 -7.42250022 32.51511506 -12 32 C-16.11280911 30.33767994 -18.37579042 27.8658391 -20.9375 24.3125 C-22.79169503 18.53177433 -23.21645429 12.65335249 -20.375 7.125 C-14.73701342 -0.29340339 -8.94075884 -1.21584495 0 0 Z " fill="#000000" transform="translate(166,320)"/>
<path d="M0 0 C3.5 1.6875 3.5 1.6875 6 4 C6.763125 4.70125 7.52625 5.4025 8.3125 6.125 C10.76870815 10.30965092 11.18079382 14.18636466 11 19 C9.35395187 24.90640798 6.80402955 27.52474458 2 31 C-2.2150656 33.1075328 -7.42250022 32.51511506 -12 32 C-16.11280911 30.33767994 -18.37579042 27.8658391 -20.9375 24.3125 C-22.79169503 18.53177433 -23.21645429 12.65335249 -20.375 7.125 C-14.73701342 -0.29340339 -8.94075884 -1.21584495 0 0 Z " fill="#000000" transform="translate(166,240)"/>
<path d="M0 0 C3.5 1.6875 3.5 1.6875 6 4 C6.763125 4.70125 7.52625 5.4025 8.3125 6.125 C10.76870815 10.30965092 11.18079382 14.18636466 11 19 C9.35395187 24.90640798 6.80402955 27.52474458 2 31 C-2.2150656 33.1075328 -7.42250022 32.51511506 -12 32 C-16.11280911 30.33767994 -18.37579042 27.8658391 -20.9375 24.3125 C-22.79169503 18.53177433 -23.21645429 12.65335249 -20.375 7.125 C-14.73701342 -0.29340339 -8.94075884 -1.21584495 0 0 Z " fill="#000000" transform="translate(166,160)"/>
</svg>
