<?xml version="1.0" encoding="UTF-8"?>
<svg version="1.1" xmlns="http://www.w3.org/2000/svg" width="512" height="512">
<path d="M0 0 C19.25113081 15.48905138 31.58955298 37.21229667 34.6315918 61.80493164 C34.70812379 64.07340571 34.73970768 66.3437848 34.72924805 68.61352539 C34.72602539 69.85424805 34.72280273 71.0949707 34.71948242 72.37329102 C34.71110352 73.65010742 34.70272461 74.92692383 34.6940918 76.24243164 C34.68958008 77.54631836 34.68506836 78.85020508 34.68041992 80.19360352 C34.6686843 83.39742716 34.65226543 86.60115527 34.6315918 89.80493164 C35.99889183 89.79826981 35.99889183 89.79826981 37.39381409 89.79147339 C46.00056662 89.7513343 54.60728753 89.72091554 63.21411228 89.7013073 C67.6385505 89.6908875 72.06291112 89.67676134 76.48730469 89.65405273 C80.76020504 89.6322599 85.03303093 89.62034945 89.30598259 89.61517715 C90.93299468 89.61149294 92.56000287 89.60429865 94.18698311 89.59347153 C96.47272551 89.57887085 98.75816349 89.57695725 101.04394531 89.57788086 C102.34300308 89.57343964 103.64206085 89.56899841 104.98048401 89.56442261 C111.17232094 89.97229682 116.29164188 91.2238734 120.6315918 95.80493164 C123.84713091 102.74004009 124.53663769 109.59078272 125.29125977 117.14477539 C125.43448076 118.5005211 125.57864386 119.85616756 125.72366047 121.21172237 C126.11894544 124.93216035 126.50093932 128.65386084 126.88081717 132.37589908 C127.29606796 136.42058096 127.72391797 140.46393256 128.15022278 144.50746155 C128.98879451 152.4798345 129.81615658 160.45333276 130.63982934 168.42725724 C131.60626072 177.77917706 132.58324932 187.12998398 133.5612663 196.48069823 C134.06837838 201.3292307 134.57513269 206.17780054 135.08177185 211.02638245 C135.18395179 212.00422524 135.28613173 212.98206803 135.39140803 213.98954242 C136.13185956 221.07799067 136.86987731 228.16669018 137.60707092 235.25547791 C140.50414732 263.10455916 143.44417482 290.94887035 146.40971112 318.7907418 C147.2732106 326.89851258 148.13485489 335.00647863 148.99511719 343.11459351 C149.11562305 344.25037736 149.23612892 345.38616121 149.36028647 346.55636275 C149.9643045 352.25004946 150.56807702 357.94376216 151.17169571 363.63749123 C152.36283744 374.87077725 153.55709488 386.10371635 154.75823975 397.3359375 C155.78636142 406.95074848 156.8077498 416.56624636 157.82069391 426.18266863 C158.34089038 431.11906718 158.8643062 436.05507004 159.39621925 440.99022102 C159.88545863 445.52995062 160.3657569 450.07053523 160.83905435 454.61195374 C161.01209195 456.25704648 161.18839017 457.90180026 161.36829734 459.54615593 C163.51195974 479.17850775 163.51195974 479.17850775 159.8815918 486.17993164 C156.69369587 489.89914355 154.22615399 491.62303514 149.29469222 492.1855818 C148.00987828 492.18823715 146.72506434 492.1908925 145.40131664 492.19362831 C144.31991974 492.20196637 144.31991974 492.20196637 143.21667644 492.21047288 C140.79412087 492.22546491 138.37209574 492.21907437 135.94950867 492.21279907 C134.19784978 492.21911862 132.44619517 492.22673305 130.694547 492.23553312 C125.87558224 492.2558594 121.0567661 492.25735937 116.23776543 492.25574183 C111.04266746 492.25718461 105.8476263 492.27576423 100.65255737 492.29199219 C89.29110643 492.32412994 77.92970084 492.33392748 66.56821036 492.33963442 C59.47592104 492.34338338 52.38364387 492.35218918 45.29136086 492.36213303 C25.65960181 492.38907408 6.02785453 492.41158247 -13.60392475 492.414011 C-15.48874477 492.41424436 -15.48874477 492.41424436 -17.41164197 492.41448244 C-19.95902455 492.41477349 -22.50640713 492.41505887 -25.05378971 492.41533859 C-26.95060619 492.41555287 -26.95060619 492.41555287 -28.88574219 492.41577148 C-30.15182747 492.41591115 -31.41791276 492.41605082 -32.72236427 492.41619472 C-53.24472363 492.41933104 -73.76687207 492.4559305 -94.28916178 492.50740774 C-115.35280232 492.55982234 -136.41633864 492.58612427 -157.48004597 492.58556211 C-169.30917387 492.58581496 -181.13805933 492.59709887 -192.96712685 492.63673782 C-203.03822548 492.6703138 -213.10898729 492.67984553 -223.18012444 492.65798087 C-228.31949495 492.64752817 -233.45820538 492.64842142 -238.59750557 492.67974472 C-243.30251375 492.70814104 -248.00634813 492.70422738 -252.71133842 492.67458574 C-254.41321201 492.66954376 -256.1151704 492.67633151 -257.81693605 492.69615026 C-272.11123157 492.85180765 -272.11123157 492.85180765 -277.37234783 488.37605858 C-281.36189381 484.09763202 -281.54345004 480.86526773 -281.51981068 475.16369057 C-281.51750277 474.40079937 -281.51519486 473.63790818 -281.51281701 472.85189907 C-281.43945537 465.20981513 -280.76461773 457.65984044 -279.94596863 450.06478882 C-279.79062612 448.56200412 -279.63604812 447.05914023 -279.48215562 445.55620635 C-279.06254268 441.47991226 -278.63214791 437.4048223 -278.19975173 433.32986712 C-277.73322198 428.91483603 -277.27690631 424.49874695 -276.81919861 420.08279419 C-275.92335575 411.45589126 -275.01800335 402.83001252 -274.10903832 394.20448332 C-273.37049801 387.19486462 -272.63525026 380.18490784 -271.90230751 373.17470169 C-271.79770995 372.17434531 -271.69311239 371.17398893 -271.58534521 370.14331872 C-271.37283168 368.11079141 -271.16032289 366.07826361 -270.94781879 364.04573531 C-268.95913518 345.02890489 -266.95930813 326.01325881 -264.95586238 306.99797876 C-263.123505 289.60348887 -261.30424987 272.20765826 -259.49126109 254.81113987 C-257.62737603 236.92721933 -255.7552436 219.04418058 -253.87392598 201.16208518 C-253.66125664 199.14039277 -253.44859999 197.11869903 -253.23595619 195.09700394 C-253.13134214 194.1023958 -253.02672808 193.10778765 -252.91894391 192.08303987 C-252.18267937 185.07792364 -251.45178794 178.07225881 -250.72304344 171.06635666 C-249.83548578 162.53473327 -248.9400603 154.0039804 -248.03446027 145.47425251 C-247.5727598 141.12355956 -247.11466538 136.77256702 -246.66629028 132.42047882 C-246.25572904 128.43638268 -245.83482798 124.45351959 -245.40568129 120.47138377 C-245.2523283 119.03140692 -245.10274735 117.59102226 -244.9573411 116.15022127 C-243.38043509 100.56996525 -243.38043509 100.56996525 -238.1184082 93.99243164 C-232.91475447 89.85316162 -227.24783776 89.5557712 -220.78076172 89.57788086 C-220.05797531 89.57758881 -219.3351889 89.57729675 -218.59049988 89.57699585 C-216.22597817 89.57837771 -213.8617804 89.59388425 -211.49731445 89.60961914 C-209.84822258 89.61335335 -208.19912847 89.6161984 -206.55003357 89.61819458 C-202.22801494 89.62579893 -197.90613259 89.64541966 -193.58416748 89.66760254 C-189.16656334 89.68813016 -184.748937 89.69721104 -180.33129883 89.70727539 C-171.6769397 89.72866881 -163.02269095 89.76276577 -154.3684082 89.80493164 C-154.37429962 89.02989792 -154.38019104 88.2548642 -154.38626099 87.4563446 C-154.40979534 83.9097905 -154.42432916 80.3632529 -154.4387207 76.81665039 C-154.45286011 74.98789368 -154.45286011 74.98789368 -154.46728516 73.12219238 C-154.54752447 46.74574546 -144.19959028 24.04699936 -125.80981445 5.17993164 C-91.24070211 -27.73347575 -37.16928474 -29.19017031 0 0 Z M-109.4543457 34.30102539 C-122.74864113 51.69213431 -123.3684082 67.96657667 -123.3684082 89.80493164 C-81.4584082 89.80493164 -39.5484082 89.80493164 3.6315918 89.80493164 C3.6315918 66.03852294 2.48683188 47.13177349 -14.15942383 29.76513672 C-26.59624177 17.45448319 -42.2124548 10.91848695 -59.6809082 10.36743164 C-79.38172991 10.8350466 -96.67707318 19.25845953 -109.4543457 34.30102539 Z M-213.3684082 121.80493164 C-219.05731531 175.43918036 -224.73690284 229.07441105 -230.40695 282.71065694 C-231.04462682 288.74268513 -231.68245461 294.77469733 -232.32041794 300.80669522 C-234.64793612 322.81366524 -236.973016 344.82088861 -239.29045773 366.82892227 C-240.23476457 375.79627868 -241.18022883 384.7635093 -242.12887573 393.73040771 C-242.93522219 401.35235234 -243.73908493 408.97455364 -244.53965396 416.59710735 C-244.9473 420.47780452 -245.35610657 424.35837001 -245.76807213 428.23861122 C-246.21384277 432.4376357 -246.65395611 436.63723383 -247.09350586 440.83691406 C-247.22422957 442.05986616 -247.35495329 443.28281826 -247.48963833 444.54282951 C-247.6066261 445.66949091 -247.72361387 446.79615231 -247.84414673 447.95695496 C-247.94613184 448.92434695 -248.04811695 449.89173895 -248.15319252 450.88844585 C-248.39651017 454.18575413 -248.3684082 457.49865801 -248.3684082 460.80493164 C-123.9584082 460.80493164 0.4515918 460.80493164 128.6315918 460.80493164 C128.03412372 450.05050627 127.41028561 439.45089742 126.26525879 428.76679993 C126.1303527 427.4741238 125.99544662 426.18144767 125.85645247 424.84959954 C125.48831699 421.32326672 125.11480186 417.79752304 124.74026656 414.27186501 C124.33485652 410.44617426 123.93462169 406.6199414 123.53370667 402.79377747 C122.75039449 395.32581464 121.96244128 387.8583487 121.17288601 380.39104364 C120.25255773 371.68508969 119.33705311 362.97863047 118.42175502 354.27214649 C116.78871557 338.73981161 115.15156192 323.20791323 113.51196289 307.67626953 C111.92230296 292.61763857 110.33524466 277.5587366 108.7512207 262.49951172 C108.65347798 261.57028195 108.55573525 260.64105219 108.45503062 259.68366394 C108.25811502 257.81158773 108.06119994 255.93951147 107.86428538 254.06743516 C107.76714089 253.14387919 107.6699964 252.22032322 107.56990814 251.26878071 C107.47300386 250.34749652 107.37609957 249.42621234 107.2762588 248.47701045 C105.76379768 234.09862196 104.24929294 219.72044863 102.73444602 205.34231133 C102.27739214 201.00410797 101.82043973 196.66589397 101.36371422 192.32765603 C100.40436422 183.2152705 99.44433632 174.10295755 98.48197687 164.99088929 C98.08425791 161.2249931 97.68693419 157.45905642 97.29072762 153.69300079 C96.86121788 149.61059701 96.42967876 145.52841033 95.9979248 141.44624329 C95.87311847 140.25715357 95.74831214 139.06806385 95.6197238 137.84294111 C95.44523419 136.19800665 95.44523419 136.19800665 95.26721954 134.51984119 C95.16789517 133.57839907 95.0685708 132.63695696 94.96623659 131.66698629 C94.58098478 128.37211438 94.10073143 125.08890908 93.6315918 121.80493164 C74.1615918 121.80493164 54.6915918 121.80493164 34.6315918 121.80493164 C34.42174653 134.0853366 34.42174653 134.0853366 34.24365234 146.36621094 C34.21135014 147.9122151 34.17797468 149.45819738 34.14331055 151.00415039 C34.13706665 151.79905884 34.13082275 152.59396729 34.12438965 153.41296387 C34.0031454 158.10033981 33.41488608 160.87091898 30.6315918 164.80493164 C30.6315918 165.46493164 30.6315918 166.12493164 30.6315918 166.80493164 C24.51048885 169.36624422 19.13599572 170.82227496 12.6315918 168.80493164 C8.66428385 166.52457729 6.69485037 163.93144879 4.6315918 159.80493164 C4.3015918 147.26493164 3.9715918 134.72493164 3.6315918 121.80493164 C-38.2784082 121.80493164 -80.1884082 121.80493164 -123.3684082 121.80493164 C-123.6984082 134.34493164 -124.0284082 146.88493164 -124.3684082 159.80493164 C-129.96653904 168.2021279 -129.96653904 168.2021279 -134.3762207 169.30883789 C-139.83361005 170.18757007 -143.48799589 169.67576242 -148.3684082 166.80493164 C-153.12833387 161.66922236 -153.5464432 158.10200786 -153.68481445 151.29711914 C-153.70346558 150.55212158 -153.7221167 149.80712402 -153.74133301 149.03955078 C-153.80969833 146.2531332 -153.86980386 143.46651791 -153.9309082 140.67993164 C-154.0752832 134.45118164 -154.2196582 128.22243164 -154.3684082 121.80493164 C-173.8384082 121.80493164 -193.3084082 121.80493164 -213.3684082 121.80493164 Z " fill="#000000" transform="translate(316.368408203125,20.195068359375)"/>
</svg>
